<svg xmlns="http://www.w3.org/2000/svg" version="1.1" xmlns:xlink="http://www.w3.org/1999/xlink" xmlns:svgjs="http://svgjs.dev/svgjs" width="1000" height="1000" viewBox="0 0 1000 1000"><g transform="matrix(1,0,0,1,-0.14221556886212738,-0.14221556886229791)"><svg viewBox="0 0 334 334" data-background-color="#ffffff" preserveAspectRatio="xMidYMid meet" height="1000" width="1000" xmlns="http://www.w3.org/2000/svg" xmlns:xlink="http://www.w3.org/1999/xlink"><g id="tight-bounds" transform="matrix(1,0,0,1,0.04749999999998522,0.04750000000001364)"><svg viewBox="0 0 333.90454557049503 333.90454557049503" height="333.90454557049503" width="333.90454557049503"><g><svg></svg></g><g><svg viewBox="0 0 333.90454557049503 333.90454557049503" height="333.90454557049503" width="333.90454557049503"><g><path d="M0 166.952c0-92.205 74.747-166.952 166.952-166.952 92.205 0 166.952 74.747 166.953 166.952 0 92.205-74.747 166.952-166.953 166.953-92.205 0-166.952-74.747-166.952-166.953zM166.952 316.63c82.665 0 149.677-67.013 149.678-149.678 0-82.665-67.013-149.677-149.678-149.677-82.665 0-149.677 67.013-149.677 149.677 0 82.665 67.013 149.677 149.677 149.678z" data-fill-palette-color="tertiary" fill="#f05e59" stroke="transparent"></path><ellipse rx="160.27418187383762" ry="160.27418187383762" cx="166.95227278524752" cy="166.95227278524752" fill="#f05e59" stroke="transparent" stroke-width="0" fill-opacity="1" data-fill-palette-color="tertiary"></ellipse></g><g transform="matrix(1,0,0,1,90.11244607830878,71.17305217166896)"><svg viewBox="0 0 153.67965341387747 191.55844122715712" height="191.55844122715712" width="153.67965341387747"><g><svg viewBox="0 0 153.67965341387747 191.55844122715712" height="191.55844122715712" width="153.67965341387747"><g><svg viewBox="0 0 153.67965341387747 191.55844122715712" height="191.55844122715712" width="153.67965341387747"><g><svg viewBox="0 0 153.67965341387747 191.55844122715712" height="191.55844122715712" width="153.67965341387747"><g id="textblocktransform"><svg viewBox="0 0 153.67965341387747 191.55844122715712" height="191.55844122715712" width="153.67965341387747" id="textblock"><g><svg viewBox="0 0 153.67965341387747 191.55844122715712" height="191.55844122715712" width="153.67965341387747"><g transform="matrix(1,0,0,1,0,0)"><svg width="153.67965341387747" viewBox="3 -35.4 28.4 35.4" height="191.55844122715712" data-palette-color="#ffffff"><path d="M11 0L4 0 4-27.35 3-32.4 4-35.4 16-35.4Q19.65-35.4 22.58-34.27 25.5-33.15 27.23-30.48 28.95-27.8 28.95-23.1L28.95-23.1Q28.95-18.65 27.28-16 25.6-13.35 22.65-12.05L22.65-12.05 24.1-10.75 28.55-5.55 31.4-3 31.4 0 22.15 0 15.15-10.65 11-10.65 11-8.05 11.5-3.05 11 0ZM10.5-28.9L11-17 15.9-17Q19.2-17 20.4-18.73 21.6-20.45 21.6-23.1L21.6-23.1Q21.6-25.9 20.33-27.4 19.05-28.9 15.7-28.9L15.7-28.9 10.5-28.9Z" opacity="1" transform="matrix(1,0,0,1,0,0)" fill="#ffffff" class="wordmark-text-0" data-fill-palette-color="quaternary" id="text-0"></path></svg></g></svg></g></svg></g></svg></g><g></g></svg></g></svg></g></svg></g></svg></g><defs></defs></svg><rect width="333.90454557049503" height="333.90454557049503" fill="none" stroke="none" visibility="hidden"></rect></g></svg></g></svg>